PathFileType	4	(x/y/z)	S05_PSF_T02
DataRate	CameraRate	NumFrames	NumMarkers	Units	OrigDataRate	OrigDataStartFrame	OrigNumFrames
240	240	6	50	mm	240	1	442
Frame#	Time	Sternum			R.Acromium			L.Acromium			Top.Head			R.ASIS			L.ASIS			R.PSIS			L.PSIS			R.Great.Tro			L.Great.Tro			R.Iliac.Crest			L.Iliac.Crest			V.Sacral			R.Thigh.Upper.Post			R.Thigh.Lower.Ant			R.Thigh.Lower.Post			R.Thigh.Upper.Ant			R.Knee.Lat			R.Knee.Med			R.Shank.Upper.Post			R.Shank.Lower.Ant			R.Shank.Lower.Post			R.Shank.Upper.Ant			R.Ankle.Lat			R.Ankle.Med			R.Heel.Upper			R.Heel.Med			R.Heel.Lat			R.Toe.Lat			R.Toe.Med			R.Toe.Tip			L.Thigh.Upper.Post			L.Thigh.Lower.Ant			L.Thigh.Lower.Post			L.Thigh.Upper.Ant			L.Knee.Lat			L.Shank.Upper.Post			L.Shank.Lower.Ant			L.Shank.Lower.Post			L.Shank.Upper.Ant			L.Ankle.Lat			L.Ankle.Med			L.Heel.Upper			L.Heel.Med			L.Heel.Lat			L.Toe.Lat			L.Toe.Med			L.Toe.Tip			Cervical.Spine			Back			
		X1	Y1	Z1	X2	Y2	Z2	X3	Y3	Z3	X4	Y4	Z4	X5	Y5	Z5	X6	Y6	Z6	X7	Y7	Z7	X8	Y8	Z8	X9	Y9	Z9	X10	Y10	Z10	X11	Y11	Z11	X12	Y12	Z12	X13	Y13	Z13	X14	Y14	Z14	X15	Y15	Z15	X16	Y16	Z16	X17	Y17	Z17	X18	Y18	Z18	X19	Y19	Z19	X20	Y20	Z20	X21	Y21	Z21	X22	Y22	Z22	X23	Y23	Z23	X24	Y24	Z24	X25	Y25	Z25	X26	Y26	Z26	X27	Y27	Z27	X28	Y28	Z28	X29	Y29	Z29	X30	Y30	Z30	X31	Y31	Z31	X32	Y32	Z32	X33	Y33	Z33	X34	Y34	Z34	X35	Y35	Z35	X36	Y36	Z36	X37	Y37	Z37	X38	Y38	Z38	X39	Y39	Z39	X40	Y40	Z40	X41	Y41	Z41	X42	Y42	Z42	X43	Y43	Z43	X44	Y44	Z44	X45	Y45	Z45	X46	Y46	Z46	X47	Y47	Z47	X48	Y48	Z48	X49	Y49	Z49	X50	Y50	Z50	

1	0	NaN	NaN	NaN	-1661.2	1511.7	491.73	-1680.5	1532.4	163.49	-1658.5	1824.3	314.65	NaN	NaN	NaN	NaN	NaN	NaN	NaN	NaN	NaN	NaN	NaN	NaN	-1745.7	933.73	518.62	-1690.4	919.63	131.01	-1736.9	1092.9	494.38	-1707.8	1082.4	157.5	-1842.6	990.14	325.47	-1734.8	708.7	503.6	NaN	NaN	NaN	-1771	629.07	481.07	-1670.8	709.29	486.7	NaN	NaN	NaN	NaN	NaN	NaN	-1927	313.77	437.6	-1883.4	237.25	437.63	-1949.5	244.41	419.97	NaN	NaN	NaN	-1909.4	135.2	414.71	-1903.9	162.27	328.64	-1997.1	93.606	354.04	-1986.3	59.644	327.13	-1990.2	64.821	390.97	NaN	NaN	NaN	-1789.9	46.532	327.28	-1725.5	57.777	373.35	-1614.9	690	131.8	-1513.4	649.29	156.18	-1572.6	605.12	146.91	-1547.1	732.89	142.25	-1525.1	529.84	157.45	-1499.5	323.6	159.08	-1414.2	302.92	149.48	-1467.6	261.4	176.77	-1447.9	364.02	141	-1367.8	148.23	172.26	-1332.3	184.38	251.62	NaN	NaN	NaN	-1356.8	66.262	264.3	-1376.2	56.34	204.21	-1228.2	138.69	115.45	-1193.7	173.69	229.48	-1157	209.94	161.05	-1718.3	1562.6	335	-1834.5	1289	333.24
2	0.0041667	NaN	NaN	NaN	-1656.3	1510.8	491.3	-1675.4	1531.3	162.99	-1653.6	1823.3	314.11	NaN	NaN	NaN	NaN	NaN	NaN	NaN	NaN	NaN	NaN	NaN	NaN	-1741.1	933.06	518.31	-1684.8	918.53	130.81	-1731.9	1091.9	493.97	-1702.4	1081.3	157.14	-1837.5	989.28	324.8	-1731.2	708.11	503.65	NaN	NaN	NaN	-1767.1	628.39	481.02	-1666.6	708.38	486.64	NaN	NaN	NaN	NaN	NaN	NaN	-1925.3	314.17	437.59	-1882.1	237.32	437.56	-1948.3	244.94	419.93	NaN	NaN	NaN	-1909.4	135.53	414.81	-1903.1	162.65	328.54	-1996.7	94.291	353.98	-1986.1	60.31	327.07	-1990.1	65.523	390.91	NaN	NaN	NaN	-1789.8	46.456	327.3	-1725.4	57.494	373.39	-1609.6	688.98	131.63	-1508.2	648.06	156.39	-1567.5	604.02	146.77	-1541.7	731.76	142.49	-1520.1	528.92	157.24	-1492.6	322.84	158.71	-1406.7	303.04	149.42	-1459.9	260.81	176.14	-1441.2	363.79	140.83	-1359.6	148.74	172	-1324.4	185.05	251.72	NaN	NaN	NaN	-1347.4	66.542	263.93	-1366.1	56.371	204.04	-1219.1	140.53	116.04	-1185.7	175.46	229.77	-1148.9	212.32	161.95	-1713.4	1561.6	334.52	-1829.5	1288	332.73
3	0.0083333	NaN	NaN	NaN	-1651.1	1509.8	490.84	-1670.1	1530.2	162.47	-1648.6	1822.3	313.54	NaN	NaN	NaN	NaN	NaN	NaN	NaN	NaN	NaN	NaN	NaN	NaN	-1736.3	932.36	517.98	-1678.9	917.41	130.6	-1726.7	1090.9	493.55	-1696.8	1080.1	156.76	-1832.2	988.4	324.11	-1727.4	707.49	503.7	NaN	NaN	NaN	-1763	627.69	480.97	-1662.3	707.44	486.57	NaN	NaN	NaN	NaN	NaN	NaN	-1923.5	314.6	437.58	-1880.7	237.41	437.5	-1947.1	245.5	419.91	NaN	NaN	NaN	-1909.5	135.87	414.91	-1902.3	163.06	328.43	-1996.4	95.029	353.93	-1986	61.027	327	-1989.9	66.272	390.85	-1829.7	42.432	447.66	-1789.7	46.38	327.32	-1725.4	57.2	373.43	-1604	687.96	131.44	-1502.8	646.85	156.62	-1562.1	602.93	146.62	-1536.1	730.64	142.74	-1514.7	528	157.04	-1485.4	322.06	158.32	-1399.1	303.1	149.35	-1452	260.19	175.5	-1434.2	363.52	140.66	-1351.2	149.18	171.74	-1316.4	185.65	251.85	NaN	NaN	NaN	-1338	66.741	263.56	-1355.9	56.33	203.85	-1209.9	142.27	116.66	-1177.5	177.13	230.12	-1140.7	214.59	162.92	-1708.2	1560.6	334.02	-1824.3	1287	332.2
4	0.0125	NaN	NaN	NaN	-1645.8	1508.8	490.36	-1664.6	1529	161.91	-1643.4	1821.3	312.94	NaN	NaN	NaN	NaN	NaN	NaN	NaN	NaN	NaN	NaN	NaN	NaN	-1731.3	931.64	517.63	-1672.8	916.28	130.37	-1721.3	1089.8	493.11	-1690.9	1079	156.36	-1826.7	987.49	323.39	-1723.4	706.85	503.74	NaN	NaN	NaN	-1758.8	626.97	480.91	-1657.8	706.48	486.5	NaN	NaN	NaN	NaN	NaN	NaN	-1921.7	315.05	437.58	-1879.3	237.5	437.44	-1945.7	246.09	419.88	NaN	NaN	NaN	-1909.5	136.23	415.02	-1901.5	163.5	328.32	-1996	95.822	353.88	-1985.8	61.797	326.94	-1989.7	67.07	390.79	-1829.4	42.399	447.66	-1789.5	46.304	327.34	-1725.3	56.899	373.47	-1598.1	686.96	131.24	-1497.1	645.66	156.87	-1556.4	601.86	146.47	-1530.3	729.54	143.01	-1509.1	527.1	156.83	-1478	321.28	157.92	-1391.3	303.1	149.29	-1444	259.54	174.87	-1427.1	363.21	140.5	-1342.8	149.52	171.5	-1308.3	186.12	252.01	NaN	NaN	NaN	-1328.6	66.838	263.19	-1345.8	56.2	203.66	-1200.6	143.86	117.32	-1169.2	178.63	230.55	-1132.3	216.67	163.96	-1702.8	1559.5	333.48	-1818.9	1285.9	331.64
5	0.016667	NaN	NaN	NaN	-1640.3	1507.7	489.85	-1659	1527.8	161.34	-1638.1	1820.2	312.31	NaN	NaN	NaN	NaN	NaN	NaN	NaN	NaN	NaN	NaN	NaN	NaN	-1726.2	930.9	517.27	-1666.6	915.15	130.12	-1715.8	1088.8	492.66	-1685	1077.8	155.95	-1821	986.56	322.65	-1719.3	706.2	503.77	NaN	NaN	NaN	-1754.4	626.25	480.86	-1653.1	705.5	486.44	NaN	NaN	NaN	NaN	NaN	NaN	-1919.7	315.53	437.58	-1877.7	237.61	437.37	-1944.3	246.72	419.86	NaN	NaN	NaN	-1909.6	136.62	415.13	-1900.6	163.96	328.22	-1995.6	96.671	353.83	-1985.6	62.623	326.89	-1989.5	67.917	390.74	-1829.1	42.367	447.66	-1789.4	46.229	327.36	-1725.2	56.592	373.5	-1591.9	685.98	131.03	-1491.1	644.53	157.13	-1550.5	600.82	146.32	-1524.2	728.48	143.27	-1503.2	526.21	156.63	-1470.5	320.51	157.51	-1383.4	303.03	149.25	-1436	258.86	174.24	-1419.8	362.86	140.35	-1334.3	149.75	171.27	-1300.2	186.46	252.2	NaN	NaN	NaN	-1319.3	66.809	262.84	-1335.8	55.967	203.47	-1191.4	145.26	118.01	-1161	179.91	231.05	-1124	218.52	165.07	-1697.2	1558.5	332.93	-1813.3	1284.9	331.07
6	0.020833	NaN	NaN	NaN	-1634.7	1506.7	489.32	-1653.3	1526.5	160.74	-1632.6	1819.2	311.65	NaN	NaN	NaN	NaN	NaN	NaN	NaN	NaN	NaN	NaN	NaN	NaN	-1720.9	930.14	516.88	-1660.2	914.03	129.86	-1710.2	1087.7	492.19	-1678.8	1076.6	155.53	-1815.2	985.62	321.89	-1715	705.55	503.79	NaN	NaN	NaN	-1750	625.52	480.81	-1648.4	704.51	486.37	NaN	NaN	NaN	NaN	NaN	NaN	-1917.7	316.04	437.58	-1876.2	237.73	437.31	-1942.9	247.38	419.85	NaN	NaN	NaN	-1909.5	137.03	415.23	-1899.7	164.45	328.12	-1995.2	97.581	353.8	-1985.3	63.507	326.84	-1989.3	68.816	390.69	-1828.9	42.336	447.67	-1789.3	46.156	327.38	-1725.1	56.282	373.52	-1585.6	685.05	130.82	-1484.9	643.45	157.41	-1544.2	599.84	146.17	-1517.9	727.48	143.54	-1497.1	525.36	156.43	-1463	319.76	157.1	-1375.6	302.86	149.21	-1428	258.16	173.63	-1412.4	362.47	140.21	-1326	149.84	171.07	-1292.3	186.63	252.42	NaN	NaN	NaN	-1310.3	66.636	262.49	-1326	55.617	203.27	-1182.3	146.42	118.74	-1153	180.94	231.65	-1115.8	220.07	166.25	-1691.6	1557.4	332.35	-1807.7	1283.8	330.49
